<svg xmlns="http://www.w3.org/2000/svg" xmlns:xlink="http://www.w3.org/1999/xlink" width="500" zoomAndPan="magnify" viewBox="0 0 375 374.999991" height="500" preserveAspectRatio="xMidYMid meet" version="1.0"><defs><g/><linearGradient x1="-3.000007" gradientTransform="matrix(1, 0, 0, 1, 0.00000662771, 0.0000284638)" y1="3" x2="248.870073" gradientUnits="userSpaceOnUse" y2="3" id="bb08d26d13"><stop stop-opacity="1" stop-color="rgb(54.899597%, 41.999817%, 87.098694%)" offset="0"/><stop stop-opacity="1" stop-color="rgb(54.829407%, 41.862488%, 86.947632%)" offset="0.015625"/><stop stop-opacity="1" stop-color="rgb(54.611206%, 41.435242%, 86.480713%)" offset="0.0195312"/><stop stop-opacity="1" stop-color="rgb(54.464722%, 41.146851%, 86.16333%)" offset="0.0234375"/><stop stop-opacity="1" stop-color="rgb(54.316711%, 40.856934%, 85.845947%)" offset="0.0273437"/><stop stop-opacity="1" stop-color="rgb(54.170227%, 40.568542%, 85.53009%)" offset="0.03125"/><stop stop-opacity="1" stop-color="rgb(54.022217%, 40.280151%, 85.212708%)" offset="0.0351562"/><stop stop-opacity="1" stop-color="rgb(53.875732%, 39.99176%, 84.896851%)" offset="0.0390625"/><stop stop-opacity="1" stop-color="rgb(53.727722%, 39.701843%, 84.579468%)" offset="0.0429687"/><stop stop-opacity="1" stop-color="rgb(53.581238%, 39.413452%, 84.262085%)" offset="0.046875"/><stop stop-opacity="1" stop-color="rgb(53.433228%, 39.123535%, 83.944702%)" offset="0.0507812"/><stop stop-opacity="1" stop-color="rgb(53.286743%, 38.835144%, 83.628845%)" offset="0.0546875"/><stop stop-opacity="1" stop-color="rgb(53.138733%, 38.545227%, 83.311462%)" offset="0.0585937"/><stop stop-opacity="1" stop-color="rgb(52.992249%, 38.256836%, 82.99408%)" offset="0.0625"/><stop stop-opacity="1" stop-color="rgb(52.844238%, 37.968445%, 82.676697%)" offset="0.0664062"/><stop stop-opacity="1" stop-color="rgb(52.697754%, 37.680054%, 82.36084%)" offset="0.0703125"/><stop stop-opacity="1" stop-color="rgb(52.549744%, 37.390137%, 82.043457%)" offset="0.0742187"/><stop stop-opacity="1" stop-color="rgb(52.403259%, 37.101746%, 81.7276%)" offset="0.078125"/><stop stop-opacity="1" stop-color="rgb(52.255249%, 36.811829%, 81.410217%)" offset="0.0820312"/><stop stop-opacity="1" stop-color="rgb(52.108765%, 36.523438%, 81.092834%)" offset="0.0859375"/><stop stop-opacity="1" stop-color="rgb(51.960754%, 36.235046%, 80.775452%)" offset="0.0898437"/><stop stop-opacity="1" stop-color="rgb(51.81427%, 35.946655%, 80.459595%)" offset="0.09375"/><stop stop-opacity="1" stop-color="rgb(51.66626%, 35.656738%, 80.142212%)" offset="0.0976562"/><stop stop-opacity="1" stop-color="rgb(51.519775%, 35.368347%, 79.824829%)" offset="0.101562"/><stop stop-opacity="1" stop-color="rgb(51.371765%, 35.07843%, 79.507446%)" offset="0.105469"/><stop stop-opacity="1" stop-color="rgb(51.225281%, 34.790039%, 79.191589%)" offset="0.109375"/><stop stop-opacity="1" stop-color="rgb(51.077271%, 34.501648%, 78.874207%)" offset="0.113281"/><stop stop-opacity="1" stop-color="rgb(50.930786%, 34.213257%, 78.55835%)" offset="0.117187"/><stop stop-opacity="1" stop-color="rgb(50.782776%, 33.92334%, 78.240967%)" offset="0.121094"/><stop stop-opacity="1" stop-color="rgb(50.636292%, 33.634949%, 77.923584%)" offset="0.125"/><stop stop-opacity="1" stop-color="rgb(50.488281%, 33.345032%, 77.606201%)" offset="0.128906"/><stop stop-opacity="1" stop-color="rgb(50.341797%, 33.056641%, 77.290344%)" offset="0.132812"/><stop stop-opacity="1" stop-color="rgb(50.193787%, 32.76825%, 76.972961%)" offset="0.136719"/><stop stop-opacity="1" stop-color="rgb(50.047302%, 32.479858%, 76.655579%)" offset="0.140625"/><stop stop-opacity="1" stop-color="rgb(49.899292%, 32.189941%, 76.338196%)" offset="0.144531"/><stop stop-opacity="1" stop-color="rgb(49.752808%, 31.90155%, 76.022339%)" offset="0.148437"/><stop stop-opacity="1" stop-color="rgb(49.604797%, 31.611633%, 75.704956%)" offset="0.152344"/><stop stop-opacity="1" stop-color="rgb(49.458313%, 31.323242%, 75.389099%)" offset="0.15625"/><stop stop-opacity="1" stop-color="rgb(49.310303%, 31.034851%, 75.071716%)" offset="0.160156"/><stop stop-opacity="1" stop-color="rgb(49.163818%, 30.74646%, 74.754333%)" offset="0.164062"/><stop stop-opacity="1" stop-color="rgb(49.015808%, 30.456543%, 74.436951%)" offset="0.167969"/><stop stop-opacity="1" stop-color="rgb(48.869324%, 30.168152%, 74.121094%)" offset="0.171875"/><stop stop-opacity="1" stop-color="rgb(48.721313%, 29.878235%, 73.803711%)" offset="0.175781"/><stop stop-opacity="1" stop-color="rgb(48.574829%, 29.589844%, 73.486328%)" offset="0.179687"/><stop stop-opacity="1" stop-color="rgb(48.426819%, 29.301453%, 73.168945%)" offset="0.183594"/><stop stop-opacity="1" stop-color="rgb(48.280334%, 29.013062%, 72.853088%)" offset="0.1875"/><stop stop-opacity="1" stop-color="rgb(48.132324%, 28.723145%, 72.535706%)" offset="0.191406"/><stop stop-opacity="1" stop-color="rgb(47.98584%, 28.434753%, 72.219849%)" offset="0.195312"/><stop stop-opacity="1" stop-color="rgb(47.83783%, 28.144836%, 71.902466%)" offset="0.199219"/><stop stop-opacity="1" stop-color="rgb(47.691345%, 27.856445%, 71.585083%)" offset="0.203125"/><stop stop-opacity="1" stop-color="rgb(47.543335%, 27.566528%, 71.2677%)" offset="0.207031"/><stop stop-opacity="1" stop-color="rgb(47.396851%, 27.278137%, 70.951843%)" offset="0.210937"/><stop stop-opacity="1" stop-color="rgb(47.24884%, 26.989746%, 70.63446%)" offset="0.214844"/><stop stop-opacity="1" stop-color="rgb(47.102356%, 26.701355%, 70.317078%)" offset="0.21875"/><stop stop-opacity="1" stop-color="rgb(46.954346%, 26.411438%, 69.999695%)" offset="0.222656"/><stop stop-opacity="1" stop-color="rgb(46.807861%, 26.123047%, 69.683838%)" offset="0.226562"/><stop stop-opacity="1" stop-color="rgb(46.659851%, 25.83313%, 69.366455%)" offset="0.230469"/><stop stop-opacity="1" stop-color="rgb(46.513367%, 25.544739%, 69.050598%)" offset="0.234375"/><stop stop-opacity="1" stop-color="rgb(46.365356%, 25.256348%, 68.733215%)" offset="0.238281"/><stop stop-opacity="1" stop-color="rgb(46.218872%, 24.967957%, 68.415833%)" offset="0.242187"/><stop stop-opacity="1" stop-color="rgb(46.070862%, 24.67804%, 68.09845%)" offset="0.246094"/><stop stop-opacity="1" stop-color="rgb(45.924377%, 24.389648%, 67.782593%)" offset="0.25"/><stop stop-opacity="1" stop-color="rgb(45.776367%, 24.099731%, 67.46521%)" offset="0.253906"/><stop stop-opacity="1" stop-color="rgb(45.629883%, 23.81134%, 67.147827%)" offset="0.257812"/><stop stop-opacity="1" stop-color="rgb(45.481873%, 23.522949%, 66.830444%)" offset="0.261719"/><stop stop-opacity="1" stop-color="rgb(45.335388%, 23.234558%, 66.514587%)" offset="0.265625"/><stop stop-opacity="1" stop-color="rgb(45.187378%, 22.944641%, 66.197205%)" offset="0.269531"/><stop stop-opacity="1" stop-color="rgb(45.040894%, 22.65625%, 65.881348%)" offset="0.273437"/><stop stop-opacity="1" stop-color="rgb(44.892883%, 22.366333%, 65.563965%)" offset="0.277344"/><stop stop-opacity="1" stop-color="rgb(44.746399%, 22.077942%, 65.246582%)" offset="0.28125"/><stop stop-opacity="1" stop-color="rgb(44.598389%, 21.789551%, 64.929199%)" offset="0.285156"/><stop stop-opacity="1" stop-color="rgb(44.451904%, 21.50116%, 64.613342%)" offset="0.289062"/><stop stop-opacity="1" stop-color="rgb(44.303894%, 21.211243%, 64.295959%)" offset="0.292969"/><stop stop-opacity="1" stop-color="rgb(44.15741%, 20.922852%, 63.978577%)" offset="0.296875"/><stop stop-opacity="1" stop-color="rgb(44.009399%, 20.632935%, 63.661194%)" offset="0.300781"/><stop stop-opacity="1" stop-color="rgb(43.861389%, 20.344543%, 63.345337%)" offset="0.304687"/><stop stop-opacity="1" stop-color="rgb(43.713379%, 20.056152%, 63.027954%)" offset="0.308594"/><stop stop-opacity="1" stop-color="rgb(43.566895%, 19.767761%, 62.712097%)" offset="0.3125"/><stop stop-opacity="1" stop-color="rgb(43.418884%, 19.477844%, 62.394714%)" offset="0.316406"/><stop stop-opacity="1" stop-color="rgb(43.2724%, 19.189453%, 62.077332%)" offset="0.320312"/><stop stop-opacity="1" stop-color="rgb(43.12439%, 18.899536%, 61.759949%)" offset="0.324219"/><stop stop-opacity="1" stop-color="rgb(42.977905%, 18.611145%, 61.444092%)" offset="0.328125"/><stop stop-opacity="1" stop-color="rgb(42.829895%, 18.322754%, 61.126709%)" offset="0.332031"/><stop stop-opacity="1" stop-color="rgb(42.683411%, 18.034363%, 60.809326%)" offset="0.335937"/><stop stop-opacity="1" stop-color="rgb(42.5354%, 17.744446%, 60.491943%)" offset="0.339844"/><stop stop-opacity="1" stop-color="rgb(42.388916%, 17.456055%, 60.176086%)" offset="0.34375"/><stop stop-opacity="1" stop-color="rgb(42.240906%, 17.166138%, 59.858704%)" offset="0.347656"/><stop stop-opacity="1" stop-color="rgb(42.094421%, 16.877747%, 59.542847%)" offset="0.351562"/><stop stop-opacity="1" stop-color="rgb(41.946411%, 16.58783%, 59.225464%)" offset="0.355469"/><stop stop-opacity="1" stop-color="rgb(41.799927%, 16.299438%, 58.908081%)" offset="0.359375"/><stop stop-opacity="1" stop-color="rgb(41.651917%, 16.011047%, 58.590698%)" offset="0.363281"/><stop stop-opacity="1" stop-color="rgb(41.505432%, 15.722656%, 58.274841%)" offset="0.367187"/><stop stop-opacity="1" stop-color="rgb(41.357422%, 15.432739%, 57.957458%)" offset="0.371094"/><stop stop-opacity="1" stop-color="rgb(41.210938%, 15.144348%, 57.640076%)" offset="0.375"/><stop stop-opacity="1" stop-color="rgb(41.062927%, 14.854431%, 57.322693%)" offset="0.378906"/><stop stop-opacity="1" stop-color="rgb(40.916443%, 14.56604%, 57.006836%)" offset="0.382812"/><stop stop-opacity="1" stop-color="rgb(40.768433%, 14.277649%, 56.689453%)" offset="0.386719"/><stop stop-opacity="1" stop-color="rgb(40.621948%, 13.989258%, 56.373596%)" offset="0.390625"/><stop stop-opacity="1" stop-color="rgb(40.473938%, 13.699341%, 56.056213%)" offset="0.394531"/><stop stop-opacity="1" stop-color="rgb(40.327454%, 13.41095%, 55.738831%)" offset="0.398437"/><stop stop-opacity="1" stop-color="rgb(40.179443%, 13.121033%, 55.421448%)" offset="0.402344"/><stop stop-opacity="1" stop-color="rgb(40.032959%, 12.832642%, 55.105591%)" offset="0.40625"/><stop stop-opacity="1" stop-color="rgb(39.884949%, 12.54425%, 54.788208%)" offset="0.410156"/><stop stop-opacity="1" stop-color="rgb(39.738464%, 12.255859%, 54.470825%)" offset="0.414062"/><stop stop-opacity="1" stop-color="rgb(39.590454%, 11.965942%, 54.153442%)" offset="0.417969"/><stop stop-opacity="1" stop-color="rgb(39.44397%, 11.677551%, 53.837585%)" offset="0.421875"/><stop stop-opacity="1" stop-color="rgb(39.295959%, 11.387634%, 53.520203%)" offset="0.425781"/><stop stop-opacity="1" stop-color="rgb(39.149475%, 11.099243%, 53.204346%)" offset="0.429687"/><stop stop-opacity="1" stop-color="rgb(39.001465%, 10.810852%, 52.886963%)" offset="0.433594"/><stop stop-opacity="1" stop-color="rgb(38.85498%, 10.522461%, 52.56958%)" offset="0.4375"/><stop stop-opacity="1" stop-color="rgb(38.70697%, 10.232544%, 52.252197%)" offset="0.441406"/><stop stop-opacity="1" stop-color="rgb(38.560486%, 9.944153%, 51.93634%)" offset="0.445312"/><stop stop-opacity="1" stop-color="rgb(38.412476%, 9.654236%, 51.618958%)" offset="0.449219"/><stop stop-opacity="1" stop-color="rgb(38.265991%, 9.365845%, 51.301575%)" offset="0.453125"/><stop stop-opacity="1" stop-color="rgb(38.117981%, 9.077454%, 50.984192%)" offset="0.457031"/><stop stop-opacity="1" stop-color="rgb(37.971497%, 8.789062%, 50.668335%)" offset="0.460937"/><stop stop-opacity="1" stop-color="rgb(37.823486%, 8.499146%, 50.350952%)" offset="0.464844"/><stop stop-opacity="1" stop-color="rgb(37.677002%, 8.210754%, 50.035095%)" offset="0.46875"/><stop stop-opacity="1" stop-color="rgb(37.528992%, 7.920837%, 49.717712%)" offset="0.472656"/><stop stop-opacity="1" stop-color="rgb(37.382507%, 7.632446%, 49.40033%)" offset="0.476562"/><stop stop-opacity="1" stop-color="rgb(37.234497%, 7.342529%, 49.082947%)" offset="0.480469"/><stop stop-opacity="1" stop-color="rgb(37.088013%, 7.054138%, 48.76709%)" offset="0.484375"/><stop stop-opacity="1" stop-color="rgb(36.940002%, 6.765747%, 48.449707%)" offset="0.488281"/><stop stop-opacity="1" stop-color="rgb(36.793518%, 6.477356%, 48.132324%)" offset="0.492187"/><stop stop-opacity="1" stop-color="rgb(36.645508%, 6.187439%, 47.814941%)" offset="0.496094"/><stop stop-opacity="1" stop-color="rgb(36.499023%, 5.899048%, 47.499084%)" offset="0.5"/><stop stop-opacity="1" stop-color="rgb(36.6745%, 6.039429%, 47.834778%)" offset="0.503906"/><stop stop-opacity="1" stop-color="rgb(36.849976%, 6.181335%, 48.170471%)" offset="0.507812"/><stop stop-opacity="1" stop-color="rgb(37.025452%, 6.321716%, 48.504639%)" offset="0.511719"/><stop stop-opacity="1" stop-color="rgb(37.200928%, 6.462097%, 48.840332%)" offset="0.515625"/><stop stop-opacity="1" stop-color="rgb(37.374878%, 6.602478%, 49.176025%)" offset="0.519531"/><stop stop-opacity="1" stop-color="rgb(37.550354%, 6.744385%, 49.511719%)" offset="0.523437"/><stop stop-opacity="1" stop-color="rgb(37.72583%, 6.884766%, 49.845886%)" offset="0.527344"/><stop stop-opacity="1" stop-color="rgb(37.901306%, 7.026672%, 50.18158%)" offset="0.53125"/><stop stop-opacity="1" stop-color="rgb(38.076782%, 7.167053%, 50.517273%)" offset="0.535156"/><stop stop-opacity="1" stop-color="rgb(38.252258%, 7.307434%, 50.852966%)" offset="0.539062"/><stop stop-opacity="1" stop-color="rgb(38.427734%, 7.447815%, 51.187134%)" offset="0.542969"/><stop stop-opacity="1" stop-color="rgb(38.60321%, 7.589722%, 51.522827%)" offset="0.546875"/><stop stop-opacity="1" stop-color="rgb(38.777161%, 7.730103%, 51.858521%)" offset="0.550781"/><stop stop-opacity="1" stop-color="rgb(38.952637%, 7.870483%, 52.194214%)" offset="0.554687"/><stop stop-opacity="1" stop-color="rgb(39.128113%, 8.010864%, 52.528381%)" offset="0.558594"/><stop stop-opacity="1" stop-color="rgb(39.303589%, 8.152771%, 52.864075%)" offset="0.5625"/><stop stop-opacity="1" stop-color="rgb(39.479065%, 8.293152%, 53.199768%)" offset="0.566406"/><stop stop-opacity="1" stop-color="rgb(39.654541%, 8.435059%, 53.535461%)" offset="0.570312"/><stop stop-opacity="1" stop-color="rgb(39.828491%, 8.575439%, 53.869629%)" offset="0.574219"/><stop stop-opacity="1" stop-color="rgb(40.003967%, 8.71582%, 54.205322%)" offset="0.578125"/><stop stop-opacity="1" stop-color="rgb(40.179443%, 8.856201%, 54.541016%)" offset="0.582031"/><stop stop-opacity="1" stop-color="rgb(40.354919%, 8.998108%, 54.876709%)" offset="0.585937"/><stop stop-opacity="1" stop-color="rgb(40.530396%, 9.138489%, 55.210876%)" offset="0.589844"/><stop stop-opacity="1" stop-color="rgb(40.705872%, 9.280396%, 55.54657%)" offset="0.59375"/><stop stop-opacity="1" stop-color="rgb(40.881348%, 9.420776%, 55.882263%)" offset="0.597656"/><stop stop-opacity="1" stop-color="rgb(41.056824%, 9.561157%, 56.217957%)" offset="0.601562"/><stop stop-opacity="1" stop-color="rgb(41.230774%, 9.701538%, 56.552124%)" offset="0.605469"/><stop stop-opacity="1" stop-color="rgb(41.40625%, 9.843445%, 56.887817%)" offset="0.609375"/><stop stop-opacity="1" stop-color="rgb(41.581726%, 9.983826%, 57.223511%)" offset="0.613281"/><stop stop-opacity="1" stop-color="rgb(41.757202%, 10.124207%, 57.559204%)" offset="0.617187"/><stop stop-opacity="1" stop-color="rgb(41.932678%, 10.264587%, 57.894897%)" offset="0.621094"/><stop stop-opacity="1" stop-color="rgb(42.108154%, 10.406494%, 58.230591%)" offset="0.625"/><stop stop-opacity="1" stop-color="rgb(42.28363%, 10.546875%, 58.564758%)" offset="0.628906"/><stop stop-opacity="1" stop-color="rgb(42.459106%, 10.688782%, 58.900452%)" offset="0.632812"/><stop stop-opacity="1" stop-color="rgb(42.633057%, 10.829163%, 59.236145%)" offset="0.636719"/><stop stop-opacity="1" stop-color="rgb(42.808533%, 10.969543%, 59.571838%)" offset="0.640625"/><stop stop-opacity="1" stop-color="rgb(42.984009%, 11.109924%, 59.906006%)" offset="0.644531"/><stop stop-opacity="1" stop-color="rgb(43.159485%, 11.251831%, 60.241699%)" offset="0.648437"/><stop stop-opacity="1" stop-color="rgb(43.334961%, 11.392212%, 60.577393%)" offset="0.652344"/><stop stop-opacity="1" stop-color="rgb(43.510437%, 11.534119%, 60.913086%)" offset="0.65625"/><stop stop-opacity="1" stop-color="rgb(43.684387%, 11.6745%, 61.247253%)" offset="0.660156"/><stop stop-opacity="1" stop-color="rgb(43.859863%, 11.81488%, 61.582947%)" offset="0.664062"/><stop stop-opacity="1" stop-color="rgb(44.035339%, 11.955261%, 61.91864%)" offset="0.667969"/><stop stop-opacity="1" stop-color="rgb(44.210815%, 12.097168%, 62.254333%)" offset="0.671875"/><stop stop-opacity="1" stop-color="rgb(44.386292%, 12.237549%, 62.588501%)" offset="0.675781"/><stop stop-opacity="1" stop-color="rgb(44.561768%, 12.37793%, 62.924194%)" offset="0.679687"/><stop stop-opacity="1" stop-color="rgb(44.737244%, 12.518311%, 63.259888%)" offset="0.683594"/><stop stop-opacity="1" stop-color="rgb(44.91272%, 12.660217%, 63.595581%)" offset="0.6875"/><stop stop-opacity="1" stop-color="rgb(45.08667%, 12.800598%, 63.929749%)" offset="0.691406"/><stop stop-opacity="1" stop-color="rgb(45.262146%, 12.942505%, 64.265442%)" offset="0.695312"/><stop stop-opacity="1" stop-color="rgb(45.437622%, 13.082886%, 64.601135%)" offset="0.699219"/><stop stop-opacity="1" stop-color="rgb(45.613098%, 13.223267%, 64.936829%)" offset="0.703125"/><stop stop-opacity="1" stop-color="rgb(45.788574%, 13.363647%, 65.270996%)" offset="0.707031"/><stop stop-opacity="1" stop-color="rgb(45.96405%, 13.505554%, 65.606689%)" offset="0.710937"/><stop stop-opacity="1" stop-color="rgb(46.139526%, 13.645935%, 65.942383%)" offset="0.714844"/><stop stop-opacity="1" stop-color="rgb(46.315002%, 13.787842%, 66.278076%)" offset="0.71875"/><stop stop-opacity="1" stop-color="rgb(46.488953%, 13.928223%, 66.612244%)" offset="0.722656"/><stop stop-opacity="1" stop-color="rgb(46.664429%, 14.068604%, 66.947937%)" offset="0.726562"/><stop stop-opacity="1" stop-color="rgb(46.839905%, 14.208984%, 67.28363%)" offset="0.730469"/><stop stop-opacity="1" stop-color="rgb(47.015381%, 14.350891%, 67.619324%)" offset="0.734375"/><stop stop-opacity="1" stop-color="rgb(47.190857%, 14.491272%, 67.953491%)" offset="0.738281"/><stop stop-opacity="1" stop-color="rgb(47.366333%, 14.631653%, 68.289185%)" offset="0.742187"/><stop stop-opacity="1" stop-color="rgb(47.540283%, 14.772034%, 68.624878%)" offset="0.746094"/><stop stop-opacity="1" stop-color="rgb(47.715759%, 14.91394%, 68.960571%)" offset="0.75"/><stop stop-opacity="1" stop-color="rgb(47.891235%, 15.054321%, 69.294739%)" offset="0.753906"/><stop stop-opacity="1" stop-color="rgb(48.066711%, 15.196228%, 69.630432%)" offset="0.757812"/><stop stop-opacity="1" stop-color="rgb(48.242188%, 15.336609%, 69.966125%)" offset="0.761719"/><stop stop-opacity="1" stop-color="rgb(48.417664%, 15.47699%, 70.301819%)" offset="0.765625"/><stop stop-opacity="1" stop-color="rgb(48.59314%, 15.617371%, 70.637512%)" offset="0.769531"/><stop stop-opacity="1" stop-color="rgb(48.768616%, 15.759277%, 70.973206%)" offset="0.773437"/><stop stop-opacity="1" stop-color="rgb(48.942566%, 15.899658%, 71.307373%)" offset="0.777344"/><stop stop-opacity="1" stop-color="rgb(49.118042%, 16.041565%, 71.643066%)" offset="0.78125"/><stop stop-opacity="1" stop-color="rgb(49.293518%, 16.181946%, 71.97876%)" offset="0.785156"/><stop stop-opacity="1" stop-color="rgb(49.468994%, 16.322327%, 72.314453%)" offset="0.789062"/><stop stop-opacity="1" stop-color="rgb(49.64447%, 16.462708%, 72.648621%)" offset="0.792969"/><stop stop-opacity="1" stop-color="rgb(49.819946%, 16.604614%, 72.984314%)" offset="0.796875"/><stop stop-opacity="1" stop-color="rgb(49.995422%, 16.744995%, 73.320007%)" offset="0.800781"/><stop stop-opacity="1" stop-color="rgb(50.170898%, 16.885376%, 73.655701%)" offset="0.804687"/><stop stop-opacity="1" stop-color="rgb(50.344849%, 17.025757%, 73.989868%)" offset="0.808594"/><stop stop-opacity="1" stop-color="rgb(50.520325%, 17.167664%, 74.325562%)" offset="0.8125"/><stop stop-opacity="1" stop-color="rgb(50.695801%, 17.308044%, 74.661255%)" offset="0.816406"/><stop stop-opacity="1" stop-color="rgb(50.871277%, 17.449951%, 74.996948%)" offset="0.820312"/><stop stop-opacity="1" stop-color="rgb(51.046753%, 17.590332%, 75.331116%)" offset="0.824219"/><stop stop-opacity="1" stop-color="rgb(51.222229%, 17.730713%, 75.666809%)" offset="0.828125"/><stop stop-opacity="1" stop-color="rgb(51.396179%, 17.871094%, 76.002502%)" offset="0.832031"/><stop stop-opacity="1" stop-color="rgb(51.571655%, 18.013%, 76.338196%)" offset="0.835937"/><stop stop-opacity="1" stop-color="rgb(51.747131%, 18.153381%, 76.672363%)" offset="0.839844"/><stop stop-opacity="1" stop-color="rgb(51.922607%, 18.293762%, 77.008057%)" offset="0.84375"/><stop stop-opacity="1" stop-color="rgb(52.098083%, 18.434143%, 77.34375%)" offset="0.847656"/><stop stop-opacity="1" stop-color="rgb(52.27356%, 18.57605%, 77.679443%)" offset="0.851562"/><stop stop-opacity="1" stop-color="rgb(52.449036%, 18.716431%, 78.013611%)" offset="0.855469"/><stop stop-opacity="1" stop-color="rgb(52.624512%, 18.858337%, 78.349304%)" offset="0.859375"/><stop stop-opacity="1" stop-color="rgb(52.798462%, 18.998718%, 78.684998%)" offset="0.863281"/><stop stop-opacity="1" stop-color="rgb(52.973938%, 19.139099%, 79.020691%)" offset="0.867187"/><stop stop-opacity="1" stop-color="rgb(53.149414%, 19.27948%, 79.354858%)" offset="0.871094"/><stop stop-opacity="1" stop-color="rgb(53.32489%, 19.421387%, 79.690552%)" offset="0.875"/><stop stop-opacity="1" stop-color="rgb(53.500366%, 19.561768%, 80.026245%)" offset="0.878906"/><stop stop-opacity="1" stop-color="rgb(53.675842%, 19.703674%, 80.361938%)" offset="0.882812"/><stop stop-opacity="1" stop-color="rgb(53.851318%, 19.844055%, 80.696106%)" offset="0.886719"/><stop stop-opacity="1" stop-color="rgb(54.026794%, 19.984436%, 81.031799%)" offset="0.890625"/><stop stop-opacity="1" stop-color="rgb(54.200745%, 20.124817%, 81.367493%)" offset="0.894531"/><stop stop-opacity="1" stop-color="rgb(54.376221%, 20.266724%, 81.703186%)" offset="0.898437"/><stop stop-opacity="1" stop-color="rgb(54.551697%, 20.407104%, 82.037354%)" offset="0.902344"/><stop stop-opacity="1" stop-color="rgb(54.727173%, 20.547485%, 82.373047%)" offset="0.90625"/><stop stop-opacity="1" stop-color="rgb(54.902649%, 20.687866%, 82.70874%)" offset="0.910156"/><stop stop-opacity="1" stop-color="rgb(55.078125%, 20.829773%, 83.044434%)" offset="0.914062"/><stop stop-opacity="1" stop-color="rgb(55.252075%, 20.970154%, 83.380127%)" offset="0.917969"/><stop stop-opacity="1" stop-color="rgb(55.427551%, 21.112061%, 83.71582%)" offset="0.921875"/><stop stop-opacity="1" stop-color="rgb(55.603027%, 21.252441%, 84.049988%)" offset="0.925781"/><stop stop-opacity="1" stop-color="rgb(55.778503%, 21.392822%, 84.385681%)" offset="0.929687"/><stop stop-opacity="1" stop-color="rgb(55.953979%, 21.533203%, 84.721375%)" offset="0.933594"/><stop stop-opacity="1" stop-color="rgb(56.129456%, 21.67511%, 85.057068%)" offset="0.9375"/><stop stop-opacity="1" stop-color="rgb(56.304932%, 21.815491%, 85.391235%)" offset="0.941406"/><stop stop-opacity="1" stop-color="rgb(56.480408%, 21.957397%, 85.726929%)" offset="0.945312"/><stop stop-opacity="1" stop-color="rgb(56.654358%, 22.097778%, 86.062622%)" offset="0.949219"/><stop stop-opacity="1" stop-color="rgb(56.829834%, 22.238159%, 86.398315%)" offset="0.953125"/><stop stop-opacity="1" stop-color="rgb(57.00531%, 22.37854%, 86.732483%)" offset="0.957031"/><stop stop-opacity="1" stop-color="rgb(57.180786%, 22.520447%, 87.068176%)" offset="0.960937"/><stop stop-opacity="1" stop-color="rgb(57.356262%, 22.660828%, 87.40387%)" offset="0.964844"/><stop stop-opacity="1" stop-color="rgb(57.531738%, 22.801208%, 87.739563%)" offset="0.96875"/><stop stop-opacity="1" stop-color="rgb(57.707214%, 22.941589%, 88.07373%)" offset="0.972656"/><stop stop-opacity="1" stop-color="rgb(57.88269%, 23.083496%, 88.409424%)" offset="0.976563"/><stop stop-opacity="1" stop-color="rgb(58.056641%, 23.223877%, 88.745117%)" offset="0.980469"/><stop stop-opacity="1" stop-color="rgb(58.232117%, 23.365784%, 89.080811%)" offset="0.984375"/><stop stop-opacity="1" stop-color="rgb(58.31604%, 23.431396%, 89.239502%)" offset="1"/></linearGradient></defs><g fill="#ffffff" fill-opacity="1"><g transform="translate(95.298718, 238.715778)"><g><path d="M 91.84375 -192.34375 C 109.820312 -192.34375 124.707031 -188.269531 136.5 -180.125 C 148.289062 -171.988281 157.066406 -160.921875 162.828125 -146.921875 C 168.597656 -132.929688 171.484375 -117.285156 171.484375 -99.984375 C 171.484375 -84.378906 169.660156 -69.453125 166.015625 -55.203125 C 162.367188 -40.960938 156.050781 -28.835938 147.0625 -18.828125 L 175.296875 5.09375 L 139.171875 5.09375 L 127.96875 -4.328125 C 117.789062 0.929688 105.75 3.5625 91.84375 3.5625 C 73.351562 3.5625 58.253906 -0.84375 46.546875 -9.65625 C 34.847656 -18.476562 26.203125 -30.691406 20.609375 -46.296875 C 15.015625 -61.910156 12.21875 -79.804688 12.21875 -99.984375 C 12.21875 -117.285156 15.097656 -132.890625 20.859375 -146.796875 C 26.628906 -160.710938 35.40625 -171.78125 47.1875 -180 C 58.976562 -188.226562 73.863281 -192.34375 91.84375 -192.34375 Z M 42.234375 -96.171875 C 42.234375 -72.421875 46.472656 -54.351562 54.953125 -41.96875 C 63.429688 -29.59375 75.726562 -23.40625 91.84375 -23.40625 C 94.21875 -23.40625 96.335938 -23.53125 98.203125 -23.78125 C 100.066406 -24.039062 101.847656 -24.335938 103.546875 -24.671875 L 74.546875 -49.109375 L 111.4375 -49.109375 L 125.171875 -37.40625 C 131.617188 -44.695312 135.941406 -53.679688 138.140625 -64.359375 C 140.347656 -75.046875 141.453125 -85.648438 141.453125 -96.171875 C 141.453125 -117.367188 137.421875 -133.4375 129.359375 -144.375 C 121.304688 -155.320312 108.71875 -160.796875 91.59375 -160.796875 C 58.6875 -160.796875 42.234375 -139.253906 42.234375 -96.171875 Z M 42.234375 -96.171875 "/></g></g></g><path stroke-linecap="butt" transform="matrix(0.75, 0, 0, 0.75, 95.298718, 281.948888)" fill="none" stroke-linejoin="miter" d="M -0.00245766 3.000441 L 245.872558 3.000441 " stroke="url(#bb08d26d13)" stroke-width="6" stroke-miterlimit="4"/><g fill="#7a51de" fill-opacity="1"><g transform="translate(119.653566, 338.59438)"><g><path d="M 10.828125 0.4375 C 9.484375 0.4375 8.175781 0.234375 6.90625 -0.171875 C 5.644531 -0.585938 4.53125 -1.222656 3.5625 -2.078125 C 2.601562 -2.929688 1.90625 -4.019531 1.46875 -5.34375 L 4.640625 -6.28125 C 4.929688 -5.40625 5.40625 -4.679688 6.0625 -4.109375 C 6.726562 -3.535156 7.492188 -3.113281 8.359375 -2.84375 C 9.222656 -2.582031 10.09375 -2.453125 10.96875 -2.453125 C 11.945312 -2.453125 12.875 -2.609375 13.75 -2.921875 C 14.625 -3.242188 15.332031 -3.726562 15.875 -4.375 C 16.425781 -5.019531 16.703125 -5.828125 16.703125 -6.796875 C 16.703125 -7.796875 16.335938 -8.585938 15.609375 -9.171875 C 14.878906 -9.753906 13.613281 -10.28125 11.8125 -10.75 L 8.703125 -11.4375 C 7.578125 -11.726562 6.472656 -12.117188 5.390625 -12.609375 C 4.304688 -13.097656 3.414062 -13.789062 2.71875 -14.6875 C 2.03125 -15.59375 1.6875 -16.800781 1.6875 -18.3125 C 1.6875 -19.707031 2.117188 -20.890625 2.984375 -21.859375 C 3.847656 -22.835938 4.96875 -23.582031 6.34375 -24.09375 C 7.71875 -24.601562 9.148438 -24.859375 10.640625 -24.859375 C 11.785156 -24.859375 12.910156 -24.691406 14.015625 -24.359375 C 15.128906 -24.035156 16.128906 -23.535156 17.015625 -22.859375 C 17.910156 -22.191406 18.613281 -21.335938 19.125 -20.296875 L 15.984375 -19.375 C 15.515625 -20.226562 14.757812 -20.875 13.71875 -21.3125 C 12.6875 -21.75 11.613281 -21.96875 10.5 -21.96875 C 9.613281 -21.96875 8.769531 -21.828125 7.96875 -21.546875 C 7.164062 -21.273438 6.507812 -20.859375 6 -20.296875 C 5.488281 -19.734375 5.234375 -19.023438 5.234375 -18.171875 C 5.234375 -17.367188 5.46875 -16.722656 5.9375 -16.234375 C 6.414062 -15.742188 7.050781 -15.359375 7.84375 -15.078125 C 8.632812 -14.796875 9.503906 -14.546875 10.453125 -14.328125 L 13.125 -13.75 C 14.363281 -13.457031 15.53125 -13.050781 16.625 -12.53125 C 17.726562 -12.019531 18.617188 -11.300781 19.296875 -10.375 C 19.984375 -9.457031 20.328125 -8.21875 20.328125 -6.65625 C 20.328125 -5.53125 20.054688 -4.519531 19.515625 -3.625 C 18.984375 -2.738281 18.265625 -2 17.359375 -1.40625 C 16.460938 -0.8125 15.445312 -0.351562 14.3125 -0.03125 C 13.175781 0.28125 12.015625 0.4375 10.828125 0.4375 Z M 10.828125 0.4375 "/></g></g></g><g fill="#7a51de" fill-opacity="1"><g transform="translate(141.444937, 338.59438)"><g><path d="M 1.359375 5.890625 L 1.359375 3.1875 L 2.59375 3.1875 C 3.46875 3.1875 4.132812 3.117188 4.59375 2.984375 C 5.0625 2.847656 5.4375 2.550781 5.71875 2.09375 C 6 1.644531 6.273438 0.957031 6.546875 0.03125 L 0 -18.09375 L 3.40625 -18.09375 L 7.859375 -4.125 L 12.328125 -18.09375 L 15.6875 -18.09375 L 9.25 0.796875 C 8.8125 2.085938 8.363281 3.101562 7.90625 3.84375 C 7.457031 4.59375 6.851562 5.117188 6.09375 5.421875 C 5.34375 5.734375 4.285156 5.890625 2.921875 5.890625 Z M 1.359375 5.890625 "/></g></g></g><g fill="#7a51de" fill-opacity="1"><g transform="translate(157.898226, 338.59438)"><g><path d="M 8.734375 0.4375 C 7.691406 0.4375 6.660156 0.273438 5.640625 -0.046875 C 4.628906 -0.378906 3.726562 -0.878906 2.9375 -1.546875 C 2.144531 -2.222656 1.546875 -3.070312 1.140625 -4.09375 L 4.09375 -5.1875 C 4.363281 -4.113281 4.953125 -3.335938 5.859375 -2.859375 C 6.773438 -2.390625 7.734375 -2.15625 8.734375 -2.15625 C 9.460938 -2.15625 10.148438 -2.265625 10.796875 -2.484375 C 11.441406 -2.703125 11.972656 -3.019531 12.390625 -3.4375 C 12.804688 -3.851562 13.015625 -4.328125 13.015625 -4.859375 C 13.015625 -5.859375 12.617188 -6.566406 11.828125 -6.984375 C 11.035156 -7.398438 10.09375 -7.71875 9 -7.9375 L 6.46875 -8.453125 C 5.59375 -8.640625 4.773438 -8.910156 4.015625 -9.265625 C 3.265625 -9.617188 2.65625 -10.125 2.1875 -10.78125 C 1.726562 -11.4375 1.5 -12.316406 1.5 -13.421875 C 1.5 -14.515625 1.835938 -15.429688 2.515625 -16.171875 C 3.203125 -16.921875 4.078125 -17.488281 5.140625 -17.875 C 6.203125 -18.269531 7.316406 -18.46875 8.484375 -18.46875 C 9.921875 -18.46875 11.28125 -18.164062 12.5625 -17.5625 C 13.84375 -16.96875 14.75 -16.035156 15.28125 -14.765625 L 12.390625 -13.703125 C 12.078125 -14.441406 11.523438 -14.988281 10.734375 -15.34375 C 9.941406 -15.695312 9.117188 -15.875 8.265625 -15.875 C 7.335938 -15.875 6.492188 -15.664062 5.734375 -15.25 C 4.984375 -14.832031 4.609375 -14.234375 4.609375 -13.453125 C 4.609375 -12.671875 4.929688 -12.101562 5.578125 -11.75 C 6.222656 -11.394531 7.019531 -11.125 7.96875 -10.9375 L 10.34375 -10.453125 C 11.320312 -10.265625 12.25 -9.984375 13.125 -9.609375 C 14 -9.242188 14.71875 -8.703125 15.28125 -7.984375 C 15.84375 -7.265625 16.125 -6.257812 16.125 -4.96875 C 16.125 -3.820312 15.769531 -2.847656 15.0625 -2.046875 C 14.351562 -1.242188 13.4375 -0.628906 12.3125 -0.203125 C 11.195312 0.222656 10.003906 0.4375 8.734375 0.4375 Z M 8.734375 0.4375 "/></g></g></g><g fill="#7a51de" fill-opacity="1"><g transform="translate(175.119264, 338.59438)"><g><path d="M 8.078125 0 C 6.929688 0 6.046875 -0.113281 5.421875 -0.34375 C 4.804688 -0.570312 4.378906 -1.015625 4.140625 -1.671875 C 3.910156 -2.335938 3.796875 -3.289062 3.796875 -4.53125 L 3.796875 -15.6875 L 0.734375 -15.6875 L 0.734375 -18.140625 L 3.796875 -18.140625 L 3.796875 -22.703125 L 6.875 -22.703125 L 6.875 -18.140625 L 10.390625 -18.140625 L 10.390625 -15.6875 L 6.875 -15.6875 L 6.875 -5.046875 C 6.875 -4.117188 6.960938 -3.492188 7.140625 -3.171875 C 7.328125 -2.859375 7.859375 -2.703125 8.734375 -2.703125 L 10.390625 -2.703125 L 10.390625 0 Z M 8.078125 0 "/></g></g></g><g fill="#7a51de" fill-opacity="1"><g transform="translate(186.965589, 338.59438)"><g><path d="M 10.28125 0.4375 C 8.375 0.4375 6.757812 0.0195312 5.4375 -0.8125 C 4.125 -1.65625 3.117188 -2.789062 2.421875 -4.21875 C 1.734375 -5.644531 1.390625 -7.25 1.390625 -9.03125 C 1.390625 -10.957031 1.78125 -12.617188 2.5625 -14.015625 C 3.34375 -15.421875 4.394531 -16.503906 5.71875 -17.265625 C 7.050781 -18.035156 8.546875 -18.421875 10.203125 -18.421875 C 11.640625 -18.421875 12.90625 -18.132812 14 -17.5625 C 15.101562 -16.988281 16.015625 -16.222656 16.734375 -15.265625 C 17.453125 -14.304688 17.972656 -13.21875 18.296875 -12 C 18.628906 -10.78125 18.742188 -9.519531 18.640625 -8.21875 L 4.6875 -8.21875 C 4.726562 -6.707031 5.0625 -5.515625 5.6875 -4.640625 C 6.3125 -3.765625 7.046875 -3.148438 7.890625 -2.796875 C 8.742188 -2.441406 9.539062 -2.265625 10.28125 -2.265625 C 11.300781 -2.265625 12.15625 -2.425781 12.84375 -2.75 C 13.539062 -3.082031 14.097656 -3.519531 14.515625 -4.0625 L 17.484375 -3.1875 C 16.816406 -2.132812 15.875 -1.265625 14.65625 -0.578125 C 13.4375 0.0976562 11.976562 0.4375 10.28125 0.4375 Z M 4.71875 -10.671875 L 15.390625 -10.671875 C 15.390625 -11.523438 15.175781 -12.34375 14.75 -13.125 C 14.320312 -13.90625 13.722656 -14.546875 12.953125 -15.046875 C 12.191406 -15.546875 11.273438 -15.796875 10.203125 -15.796875 C 9.296875 -15.796875 8.441406 -15.625 7.640625 -15.28125 C 6.835938 -14.9375 6.171875 -14.382812 5.640625 -13.625 C 5.117188 -12.875 4.8125 -11.890625 4.71875 -10.671875 Z M 4.71875 -10.671875 "/></g></g></g><g fill="#7a51de" fill-opacity="1"><g transform="translate(206.672878, 338.59438)"><g><path d="M 2.5625 0 L 2.5625 -18.140625 L 4.828125 -18.140625 L 5.625 -15.390625 C 6.132812 -16.242188 6.832031 -16.960938 7.71875 -17.546875 C 8.613281 -18.128906 9.734375 -18.421875 11.078125 -18.421875 C 12.460938 -18.421875 13.582031 -18.140625 14.4375 -17.578125 C 15.289062 -17.023438 15.914062 -16.25 16.3125 -15.25 C 17.039062 -16.363281 17.921875 -17.171875 18.953125 -17.671875 C 19.992188 -18.171875 21.144531 -18.421875 22.40625 -18.421875 C 24.507812 -18.421875 26.007812 -17.78125 26.90625 -16.5 C 27.8125 -15.226562 28.265625 -13.554688 28.265625 -11.484375 L 28.265625 0 L 25.1875 0 L 25.1875 -10.5625 C 25.1875 -11.488281 25.09375 -12.347656 24.90625 -13.140625 C 24.726562 -13.929688 24.363281 -14.570312 23.8125 -15.0625 C 23.269531 -15.550781 22.4375 -15.796875 21.3125 -15.796875 C 20 -15.796875 18.945312 -15.289062 18.15625 -14.28125 C 17.363281 -13.269531 16.96875 -11.785156 16.96875 -9.828125 L 16.96875 0 L 13.890625 0 L 13.890625 -10.5625 C 13.890625 -11.488281 13.796875 -12.347656 13.609375 -13.140625 C 13.429688 -13.929688 13.066406 -14.570312 12.515625 -15.0625 C 11.972656 -15.550781 11.140625 -15.796875 10.015625 -15.796875 C 8.703125 -15.796875 7.640625 -15.289062 6.828125 -14.28125 C 6.023438 -13.269531 5.625 -11.785156 5.625 -9.828125 L 5.625 0 Z M 2.5625 0 "/></g></g></g><g fill="#7a51de" fill-opacity="1"><g transform="translate(237.422112, 338.59438)"><g><path d="M 8.734375 0.4375 C 7.691406 0.4375 6.660156 0.273438 5.640625 -0.046875 C 4.628906 -0.378906 3.726562 -0.878906 2.9375 -1.546875 C 2.144531 -2.222656 1.546875 -3.070312 1.140625 -4.09375 L 4.09375 -5.1875 C 4.363281 -4.113281 4.953125 -3.335938 5.859375 -2.859375 C 6.773438 -2.390625 7.734375 -2.15625 8.734375 -2.15625 C 9.460938 -2.15625 10.148438 -2.265625 10.796875 -2.484375 C 11.441406 -2.703125 11.972656 -3.019531 12.390625 -3.4375 C 12.804688 -3.851562 13.015625 -4.328125 13.015625 -4.859375 C 13.015625 -5.859375 12.617188 -6.566406 11.828125 -6.984375 C 11.035156 -7.398438 10.09375 -7.71875 9 -7.9375 L 6.46875 -8.453125 C 5.59375 -8.640625 4.773438 -8.910156 4.015625 -9.265625 C 3.265625 -9.617188 2.65625 -10.125 2.1875 -10.78125 C 1.726562 -11.4375 1.5 -12.316406 1.5 -13.421875 C 1.5 -14.515625 1.835938 -15.429688 2.515625 -16.171875 C 3.203125 -16.921875 4.078125 -17.488281 5.140625 -17.875 C 6.203125 -18.269531 7.316406 -18.46875 8.484375 -18.46875 C 9.921875 -18.46875 11.28125 -18.164062 12.5625 -17.5625 C 13.84375 -16.96875 14.75 -16.035156 15.28125 -14.765625 L 12.390625 -13.703125 C 12.078125 -14.441406 11.523438 -14.988281 10.734375 -15.34375 C 9.941406 -15.695312 9.117188 -15.875 8.265625 -15.875 C 7.335938 -15.875 6.492188 -15.664062 5.734375 -15.25 C 4.984375 -14.832031 4.609375 -14.234375 4.609375 -13.453125 C 4.609375 -12.671875 4.929688 -12.101562 5.578125 -11.75 C 6.222656 -11.394531 7.019531 -11.125 7.96875 -10.9375 L 10.34375 -10.453125 C 11.320312 -10.265625 12.25 -9.984375 13.125 -9.609375 C 14 -9.242188 14.71875 -8.703125 15.28125 -7.984375 C 15.84375 -7.265625 16.125 -6.257812 16.125 -4.96875 C 16.125 -3.820312 15.769531 -2.847656 15.0625 -2.046875 C 14.351562 -1.242188 13.4375 -0.628906 12.3125 -0.203125 C 11.195312 0.222656 10.003906 0.4375 8.734375 0.4375 Z M 8.734375 0.4375 "/></g></g></g></svg>